<?xml version="1.0"?>
<svg xmlns="http://www.w3.org/2000/svg" xmlns:xlink="http://www.w3.org/1999/xlink" version="1.1" id="Capa_1" x="0px" y="0px" viewBox="0 0 469.333 469.333" style="enable-background:new 0 0 469.333 469.333;" xml:space="preserve" width="512px" height="512px" class=""><g><g>
	<g>
		<g>
			<path d="M53.333,106.667H416c29.417,0,53.333-23.927,53.333-53.333S445.417,0,416,0H53.333C23.917,0,0,23.927,0,53.333     S23.917,106.667,53.333,106.667z" data-original="#000000" class="active-path" data-old_color="#4582ec" fill="#4582ec"/>
			<path d="M416,181.333H53.333C23.917,181.333,0,205.26,0,234.667S23.917,288,53.333,288H416c29.417,0,53.333-23.927,53.333-53.333     S445.417,181.333,416,181.333z" data-original="#000000" class="active-path" data-old_color="#4582ec" fill="#4582ec"/>
			<path d="M416,362.667H53.333C23.917,362.667,0,386.594,0,416s23.917,53.333,53.333,53.333H416     c29.417,0,53.333-23.927,53.333-53.333S445.417,362.667,416,362.667z" data-original="#000000" class="active-path" data-old_color="#4582ec" fill="#4582ec"/>
		</g>
	</g>
</g></g> </svg>
